<svg id="icon_brand" xmlns="http://www.w3.org/2000/svg" width="160" height="100.004" viewBox="0 0 160 100.004">
  <path id="Trazado_9" data-name="Trazado 9" d="M30.107,53.038a49.992,49.992,0,0,0,81.231,35.93,323.242,323.242,0,0,1-39.587-14.4A328.372,328.372,0,0,1,30.107,53.038Z" fill="#62fb6c"/>
  <path id="Trazado_10" data-name="Trazado 10" d="M33.568,31.457C46.04,39.93,62.332,48.68,79.717,56.238a300.336,300.336,0,0,0,39.326,14.1c2.024.555,4.016,1.061,5.926,1.518.522-1.077,1.012-2.187,1.469-3.314A49.667,49.667,0,0,0,130,50q0-1.518-.1-3.036A50,50,0,0,0,35.037,28.127Q34.254,29.768,33.568,31.457Z" fill="#62fb6c"/>
  <path id="Trazado_11" data-name="Trazado 11" d="M134.274,58.915a28.818,28.818,0,0,1-1.845,7.721,99.61,99.61,0,0,1,12.848,10.611c1.028,1.045,1.828,1.943,2.465,2.726q-.785.049-1.763.049c-6.84,0-16.88-1.714-28.274-4.832a305.888,305.888,0,0,1-40-14.349c-18.414-8-35.669-17.353-48.6-26.348A106.671,106.671,0,0,1,14.7,22.789c-1.028-1.045-1.828-1.943-2.465-2.726q.783-.049,1.763-.049A92.692,92.692,0,0,1,32.409,22.43,31.206,31.206,0,0,1,37,15.737a107.207,107.207,0,0,0-23-5.73C6.372,9.125,1.393,11.737.25,15.361-3.211,26.4,29.683,50.851,73.726,69.983,103.29,82.814,130.356,90,145.995,90c7.672,0,12.6-1.73,13.745-5.354C161.732,78.325,152.182,70,134.274,58.915Z" fill="#e8dd3f"/>
</svg>
