<svg xmlns="http://www.w3.org/2000/svg" width="500" height="500" viewBox="0 0 500 500">
  <path id="brand_light" d="M250,500A250.066,250.066,0,0,1,152.687,19.646,250.065,250.065,0,0,1,347.311,480.354,248.442,248.442,0,0,1,250,500Zm.313-381.164a107.189,107.189,0,0,0-48.1,11.524c-18.441,8.751-33.061,21.579-43.456,38.128-6.95,11.353-11.427,22.188-13.687,33.124-2.327,10.845-3.506,27.355-3.506,49.072V377.258h49v-58.54c19.15,14.622,39.26,22.182,59.778,22.468a7.43,7.43,0,0,0,2.61.317,98.811,98.811,0,0,0,36.734-7.384c21.332-8.147,38.207-21.19,50.155-38.765,14.319-19.841,21.28-41.121,21.28-65.056,0-30.313-11.178-56.876-33.224-78.952C305.693,129.471,280.316,118.836,250.311,118.836Zm0,173.855h-.871a59.946,59.946,0,0,1-40.82-15.664A58.137,58.137,0,0,1,193.793,256.4a67.5,67.5,0,0,1-4.977-26.385,64.2,64.2,0,0,1,4.153-23.319,60.88,60.88,0,0,1,12.461-19.561c12.187-12.947,27.1-19.512,44.327-19.512h.58a62.176,62.176,0,0,1,40.241,15.372,61.244,61.244,0,0,1,16,21.1,63.575,63.575,0,0,1,5.28,26.205,62.253,62.253,0,0,1-15.476,41.692,57.617,57.617,0,0,1-20.3,15.344A65.281,65.281,0,0,1,250.311,292.691Z" fill="#3fbc47"/>
</svg>
